<mxfile host="Electron" agent="Mozilla/5.0 (X11; Linux x86_64) AppleWebKit/537.36 (KHTML, like Gecko) draw.io/26.1.1 Chrome/132.0.6834.210 Electron/34.3.3 Safari/537.36" version="26.1.1">
  <diagram name="Page-1" id="w56gE92DRfM3hPbl9A0u">
    <mxGraphModel dx="1434" dy="838" grid="1" gridSize="10" guides="1" tooltips="1" connect="1" arrows="1" fold="1" page="1" pageScale="1" pageWidth="850" pageHeight="1100" background="none" math="0" shadow="0">
      <root>
        <mxCell id="0" />
        <mxCell id="1" parent="0" />
        <mxCell id="cB1incoF3xcLGet14ZY0-1" value="Цикл управления рискам" style="text;html=1;align=center;verticalAlign=middle;whiteSpace=wrap;rounded=0;" vertex="1" parent="1">
          <mxGeometry x="130" y="10" width="240" height="20" as="geometry" />
        </mxCell>
        <mxCell id="cB1incoF3xcLGet14ZY0-8" style="edgeStyle=orthogonalEdgeStyle;rounded=0;orthogonalLoop=1;jettySize=auto;html=1;exitX=1;exitY=0.5;exitDx=0;exitDy=0;entryX=0.5;entryY=0;entryDx=0;entryDy=0;" edge="1" parent="1" source="cB1incoF3xcLGet14ZY0-2" target="cB1incoF3xcLGet14ZY0-3">
          <mxGeometry relative="1" as="geometry" />
        </mxCell>
        <mxCell id="cB1incoF3xcLGet14ZY0-2" value="выявление" style="rounded=0;whiteSpace=wrap;html=1;" vertex="1" parent="1">
          <mxGeometry x="190" y="30" width="120" height="60" as="geometry" />
        </mxCell>
        <mxCell id="cB1incoF3xcLGet14ZY0-9" style="edgeStyle=orthogonalEdgeStyle;rounded=0;orthogonalLoop=1;jettySize=auto;html=1;exitX=0.5;exitY=1;exitDx=0;exitDy=0;entryX=0.5;entryY=0;entryDx=0;entryDy=0;" edge="1" parent="1" source="cB1incoF3xcLGet14ZY0-3" target="cB1incoF3xcLGet14ZY0-4">
          <mxGeometry relative="1" as="geometry" />
        </mxCell>
        <mxCell id="cB1incoF3xcLGet14ZY0-3" value="анализ и приоритезация" style="rounded=0;whiteSpace=wrap;html=1;" vertex="1" parent="1">
          <mxGeometry x="350" y="110" width="120" height="60" as="geometry" />
        </mxCell>
        <mxCell id="cB1incoF3xcLGet14ZY0-10" style="edgeStyle=orthogonalEdgeStyle;rounded=0;orthogonalLoop=1;jettySize=auto;html=1;exitX=0.5;exitY=1;exitDx=0;exitDy=0;entryX=1;entryY=0.5;entryDx=0;entryDy=0;" edge="1" parent="1" source="cB1incoF3xcLGet14ZY0-4" target="cB1incoF3xcLGet14ZY0-5">
          <mxGeometry relative="1" as="geometry" />
        </mxCell>
        <mxCell id="cB1incoF3xcLGet14ZY0-4" value="планирование" style="rounded=0;whiteSpace=wrap;html=1;" vertex="1" parent="1">
          <mxGeometry x="350" y="190" width="120" height="60" as="geometry" />
        </mxCell>
        <mxCell id="cB1incoF3xcLGet14ZY0-11" style="edgeStyle=orthogonalEdgeStyle;rounded=0;orthogonalLoop=1;jettySize=auto;html=1;exitX=0;exitY=0.5;exitDx=0;exitDy=0;entryX=0.5;entryY=1;entryDx=0;entryDy=0;" edge="1" parent="1" source="cB1incoF3xcLGet14ZY0-5" target="cB1incoF3xcLGet14ZY0-7">
          <mxGeometry relative="1" as="geometry" />
        </mxCell>
        <mxCell id="cB1incoF3xcLGet14ZY0-5" value="мониторинг" style="rounded=0;whiteSpace=wrap;html=1;" vertex="1" parent="1">
          <mxGeometry x="190" y="270" width="120" height="60" as="geometry" />
        </mxCell>
        <mxCell id="cB1incoF3xcLGet14ZY0-13" style="edgeStyle=orthogonalEdgeStyle;rounded=0;orthogonalLoop=1;jettySize=auto;html=1;exitX=0.5;exitY=0;exitDx=0;exitDy=0;entryX=0;entryY=0.5;entryDx=0;entryDy=0;" edge="1" parent="1" source="cB1incoF3xcLGet14ZY0-6" target="cB1incoF3xcLGet14ZY0-2">
          <mxGeometry relative="1" as="geometry" />
        </mxCell>
        <mxCell id="cB1incoF3xcLGet14ZY0-6" value="извлечение уроков" style="rounded=0;whiteSpace=wrap;html=1;" vertex="1" parent="1">
          <mxGeometry x="30" y="110" width="120" height="60" as="geometry" />
        </mxCell>
        <mxCell id="cB1incoF3xcLGet14ZY0-12" style="edgeStyle=orthogonalEdgeStyle;rounded=0;orthogonalLoop=1;jettySize=auto;html=1;exitX=0.5;exitY=0;exitDx=0;exitDy=0;" edge="1" parent="1" source="cB1incoF3xcLGet14ZY0-7" target="cB1incoF3xcLGet14ZY0-6">
          <mxGeometry relative="1" as="geometry" />
        </mxCell>
        <mxCell id="cB1incoF3xcLGet14ZY0-7" value="коррекция" style="rounded=0;whiteSpace=wrap;html=1;" vertex="1" parent="1">
          <mxGeometry x="30" y="190" width="120" height="60" as="geometry" />
        </mxCell>
        <mxCell id="cB1incoF3xcLGet14ZY0-16" value="стоимость тестирования&lt;div&gt;(кол-во зависимостей)&lt;/div&gt;" style="endArrow=classic;html=1;rounded=0;" edge="1" parent="1">
          <mxGeometry width="50" height="50" relative="1" as="geometry">
            <mxPoint x="60" y="600" as="sourcePoint" />
            <mxPoint x="380" y="600" as="targetPoint" />
          </mxGeometry>
        </mxCell>
        <mxCell id="cB1incoF3xcLGet14ZY0-18" value="" style="endArrow=classic;html=1;rounded=0;" edge="1" parent="1">
          <mxGeometry width="50" height="50" relative="1" as="geometry">
            <mxPoint x="60" y="600" as="sourcePoint" />
            <mxPoint x="60" y="320" as="targetPoint" />
          </mxGeometry>
        </mxCell>
        <mxCell id="cB1incoF3xcLGet14ZY0-19" value="&lt;div&gt;выгода от тестирования&lt;/div&gt;(сложность кода)" style="edgeLabel;html=1;align=center;verticalAlign=middle;resizable=0;points=[];" vertex="1" connectable="0" parent="cB1incoF3xcLGet14ZY0-18">
          <mxGeometry x="-0.0276" y="-2" relative="1" as="geometry">
            <mxPoint as="offset" />
          </mxGeometry>
        </mxCell>
        <mxCell id="cB1incoF3xcLGet14ZY0-20" value="" style="endArrow=none;html=1;rounded=0;" edge="1" parent="1">
          <mxGeometry width="50" height="50" relative="1" as="geometry">
            <mxPoint x="60" y="480" as="sourcePoint" />
            <mxPoint x="380" y="480" as="targetPoint" />
          </mxGeometry>
        </mxCell>
        <mxCell id="cB1incoF3xcLGet14ZY0-21" value="" style="endArrow=none;html=1;rounded=0;" edge="1" parent="1">
          <mxGeometry width="50" height="50" relative="1" as="geometry">
            <mxPoint x="220" y="590" as="sourcePoint" />
            <mxPoint x="220" y="320" as="targetPoint" />
          </mxGeometry>
        </mxCell>
        <mxCell id="cB1incoF3xcLGet14ZY0-22" value="простой код&lt;div&gt;(небольшая функция)&lt;/div&gt;" style="text;html=1;align=center;verticalAlign=middle;whiteSpace=wrap;rounded=0;" vertex="1" parent="1">
          <mxGeometry x="70" y="520" width="140" height="30" as="geometry" />
        </mxCell>
        <mxCell id="cB1incoF3xcLGet14ZY0-23" value="алгоритмы" style="text;html=1;align=center;verticalAlign=middle;whiteSpace=wrap;rounded=0;" vertex="1" parent="1">
          <mxGeometry x="70" y="370" width="140" height="30" as="geometry" />
        </mxCell>
        <mxCell id="cB1incoF3xcLGet14ZY0-26" style="edgeStyle=orthogonalEdgeStyle;rounded=0;orthogonalLoop=1;jettySize=auto;html=1;entryX=0.5;entryY=0;entryDx=0;entryDy=0;fillColor=#0050ef;strokeColor=#001DBC;" edge="1" parent="1" source="cB1incoF3xcLGet14ZY0-24" target="cB1incoF3xcLGet14ZY0-23">
          <mxGeometry relative="1" as="geometry">
            <Array as="points">
              <mxPoint x="300" y="350" />
              <mxPoint x="140" y="350" />
            </Array>
          </mxGeometry>
        </mxCell>
        <mxCell id="cB1incoF3xcLGet14ZY0-27" style="edgeStyle=orthogonalEdgeStyle;rounded=0;orthogonalLoop=1;jettySize=auto;html=1;entryX=1;entryY=0.5;entryDx=0;entryDy=0;fillColor=#0050ef;strokeColor=#001DBC;" edge="1" parent="1" source="cB1incoF3xcLGet14ZY0-24" target="cB1incoF3xcLGet14ZY0-25">
          <mxGeometry relative="1" as="geometry">
            <Array as="points">
              <mxPoint x="350" y="385" />
              <mxPoint x="350" y="535" />
            </Array>
          </mxGeometry>
        </mxCell>
        <mxCell id="cB1incoF3xcLGet14ZY0-24" value="сложный код" style="text;html=1;align=center;verticalAlign=middle;whiteSpace=wrap;rounded=0;" vertex="1" parent="1">
          <mxGeometry x="230" y="370" width="140" height="30" as="geometry" />
        </mxCell>
        <mxCell id="cB1incoF3xcLGet14ZY0-25" value="связующий код&lt;div&gt;&lt;br&gt;&lt;/div&gt;" style="text;html=1;align=center;verticalAlign=middle;whiteSpace=wrap;rounded=0;" vertex="1" parent="1">
          <mxGeometry x="230" y="520" width="100" height="30" as="geometry" />
        </mxCell>
        <mxCell id="cB1incoF3xcLGet14ZY0-28" value="" style="endArrow=classic;html=1;rounded=0;" edge="1" parent="1">
          <mxGeometry width="50" height="50" relative="1" as="geometry">
            <mxPoint x="400" y="540" as="sourcePoint" />
            <mxPoint x="460" y="540" as="targetPoint" />
          </mxGeometry>
        </mxCell>
        <mxCell id="cB1incoF3xcLGet14ZY0-29" value="рефакторинг" style="text;html=1;align=center;verticalAlign=middle;whiteSpace=wrap;rounded=0;" vertex="1" parent="1">
          <mxGeometry x="460" y="520" width="90" height="30" as="geometry" />
        </mxCell>
        <mxCell id="cB1incoF3xcLGet14ZY0-36" style="edgeStyle=orthogonalEdgeStyle;rounded=0;orthogonalLoop=1;jettySize=auto;html=1;exitX=0.5;exitY=1;exitDx=0;exitDy=0;entryX=0.5;entryY=0;entryDx=0;entryDy=0;" edge="1" parent="1" source="cB1incoF3xcLGet14ZY0-32" target="cB1incoF3xcLGet14ZY0-35">
          <mxGeometry relative="1" as="geometry" />
        </mxCell>
        <mxCell id="cB1incoF3xcLGet14ZY0-32" value="найти &quot;плохой&quot; код" style="rounded=0;whiteSpace=wrap;html=1;" vertex="1" parent="1">
          <mxGeometry x="580" y="20" width="120" height="60" as="geometry" />
        </mxCell>
        <mxCell id="cB1incoF3xcLGet14ZY0-33" value="покрытие тестами" style="rounded=0;whiteSpace=wrap;html=1;" vertex="1" parent="1">
          <mxGeometry x="580" y="100" width="120" height="60" as="geometry" />
        </mxCell>
        <mxCell id="cB1incoF3xcLGet14ZY0-34" value="улучшить" style="rounded=0;whiteSpace=wrap;html=1;" vertex="1" parent="1">
          <mxGeometry x="580" y="180" width="120" height="60" as="geometry" />
        </mxCell>
        <mxCell id="cB1incoF3xcLGet14ZY0-35" value="запускаем тесты" style="rounded=0;whiteSpace=wrap;html=1;" vertex="1" parent="1">
          <mxGeometry x="580" y="260" width="120" height="60" as="geometry" />
        </mxCell>
      </root>
    </mxGraphModel>
  </diagram>
</mxfile>
